<?xml version="1.0" encoding="utf-8"?>
<svg viewBox="36.9995 162.7129 255.7138 192.756" width="255.714" height="192.756" xmlns="http://www.w3.org/2000/svg">
  <path clip-rule="evenodd" d="M 68.998,122.234 C 69.007,122.211 68.83,121.871 68.773,121.73 C 68.708,121.57 68.713,121.164 68.734,121.072 C 68.758,120.963 68.716,120.959 68.673,120.832 C 68.658,120.791 68.705,120.519 68.695,120.387 C 68.691,120.326 68.467,119.883 68.45,119.793 C 68.433,119.707 68.464,119.496 68.45,119.348 C 68.44,119.268 68.424,119.2 68.394,119.125 L 67.458,116.295 L 67.066,115.029 C 67.033,114.925 66.424,113.931 66.388,113.822 C 65.721,111.799 63.632,108.429 61.497,107.084 C 61.427,107.039 60.847,106.336 60.754,106.266 C 60.632,106.176 60.27,106.012 60.215,105.959 C 60.052,105.805 59.931,105.516 59.676,105.58 C 59.621,105.594 59.579,105.623 59.546,105.668 C 59.492,105.738 58.862,107.314 58.755,107.506 C 58.641,107.711 58.491,107.918 58.432,108.053 C 58.343,108.301 58.287,108.518 58.243,108.778 C 57.625,111.264 52.973,119.216 51.792,121.442 L 47.379,129.753 C 46.568,131.042 46.653,129.714 46.365,129.585 C 45.971,129.407 46.056,129.712 45.83,129.874 C 45.551,130.075 44.864,130.208 44.582,130.198 C 44.54,130.196 44.076,130.45 43.951,130.487 C 43.805,130.53 43.677,130.501 43.668,130.342 C 43.664,130.274 43.722,130.082 43.735,129.975 C 43.746,129.881 43.712,129.819 43.646,129.752 C 43.551,129.656 43.515,129.717 43.333,129.807 C 43.162,129.893 43.143,129.819 43.021,129.651 C 42.889,129.469 41.421,129.135 41.26,129.206 C 41.049,129.3 40.672,129.653 40.513,129.44 C 40.451,129.356 40.475,129.147 40.447,128.995 C 40.426,128.864 40.326,128.766 40.195,128.749 C 39.944,128.737 39.737,128.856 39.689,128.749 C 39.609,128.577 39.689,128.479 39.588,128.405 C 39.541,128.368 39.212,128.284 39.165,128.249 C 39.036,128.153 39.038,128.026 38.897,127.958 C 38.867,127.946 38.84,127.938 38.808,127.937 C 38.49,127.91 38.325,128.003 38.164,127.912 C 37.979,127.807 37.866,127.562 37.794,127.281 C 37.738,127.06 37.689,126.506 37.661,126.457 C 37.641,126.422 37.581,126.396 37.538,126.389 C 37.434,126.369 37.22,126.467 37.114,126.512 C 36.929,126.59 31.399,129.69 31.231,129.809 C 30.642,130.229 30.431,130.444 30.362,131.112 C 30.169,132.973 31.095,138.409 33.66,139.122 C 34.003,139.218 34.213,139.126 34.529,138.989 L 59.933,126.557 C 60.794,126.127 68.204,122.637 68.401,122.569 C 68.504,122.533 68.985,122.262 68.998,122.234 L 68.998,122.234 z M 24.17,116.629 C 24.179,116.629 24.171,116.649 24.161,116.664 C 24.142,116.691 24.108,116.703 24.077,116.713 C 23.977,116.74 9.683,124.318 8.509,124.912 L 3.78,127.578 C 3.221,127.902 2.89,128.43 2.844,129.074 C 2.718,131.021 3.878,133.715 5.106,135.365 C 5.442,135.816 6.208,136.808 6.856,136.98 C 7.191,137.068 7.455,136.98 7.747,136.89 C 7.896,136.845 22.47,130.017 24.316,129.126 C 29.082,127.028 33.113,125.276 37.899,123.224 C 38.151,123.119 38.221,123.076 38.278,122.855 C 38.348,122.584 38.432,122.009 38.49,121.841 C 38.536,121.704 38.719,121.382 38.846,121.128 C 38.948,120.925 39.311,119.864 39.558,119.28 C 39.643,119.079 39.733,118.897 39.804,118.7 C 39.918,118.382 40.025,117.843 40.127,117.563 L 45.32,104.61 L 47.838,98.495 C 48.217,97.293 48.172,96.966 48.852,95.821 C 48.958,95.643 49.771,93.079 49.799,92.88 C 49.85,92.522 50.187,92.096 49.837,92.012 C 49.678,91.973 49.352,92.063 49.176,92.123 C 48.706,92.297 48.316,92.459 47.861,92.669 C 34.11,99.054 22.673,104.821 9.364,112.083 C 8.442,112.604 7.674,113.06 6.776,113.62 C 6.153,113.975 5.812,114.608 5.855,115.323 C 6.027,117.637 6.585,119.569 7.671,121.618 C 8.058,122.302 8.558,122.235 9.353,122.03 C 9.527,121.985 13.174,120.54 14.412,120.026 L 23.961,116.672 C 24.031,116.652 24.094,116.639 24.17,116.629 L 24.17,116.629 z M 74.109,100.611 C 74.066,100.785 74.54,101.246 74.649,101.353 C 74.977,101.671 75.491,102.121 75.631,102.285 C 77.003,103.933 77.923,105.529 78.663,107.541 C 78.671,107.562 93.831,107.297 93.928,107.273 C 101.331,104.746 107.67,102.873 115.258,100.968 C 115.589,100.847 115.812,100.773 115.926,100.499 C 116.996,97.958 115.847,92.933 114.499,90.742 C 114.109,90.108 113.664,90.114 112.884,90.297 C 111.404,90.644 102.147,92.624 99.803,93.16 C 91.47,95.139 84.5,97.089 76.348,99.721 C 75.782,99.9 74.158,100.418 74.109,100.611 L 74.109,100.611 z M 61.006,88.018 C 60.944,88.181 61.079,88.32 61.162,88.393 C 61.288,88.503 63.406,89.851 63.602,90.008 C 63.746,90.122 63.859,90.228 63.981,90.365 C 64.606,91.064 64.615,91.274 65.173,91.679 C 65.777,92.117 65.51,91.924 66.075,92.544 C 66.256,92.743 67.121,93.486 67.278,93.662 C 67.503,93.914 67.52,93.961 67.769,94.108 C 67.849,94.155 71.648,97.919 71.713,98.007 C 72.018,98.419 72.396,99.191 72.847,99.142 C 72.912,99.136 82.401,94.52 82.922,94.242 C 85.321,93.096 87.356,92.147 89.775,91.045 C 93.637,89.338 100.928,86.051 101.674,85.743 C 102.36,85.46 102.72,85.256 102.677,84.578 C 102.554,82.634 100.251,76.858 98.331,75.707 C 97.861,75.424 97.36,75.615 96.771,75.785 C 91.799,77.219 61.451,86.832 61.006,88.018 L 61.006,88.018 z M 91.959,71.721 L 92.338,70.644 C 92.35,70.615 92.358,70.589 92.362,70.559 C 92.389,70.321 92.252,70.33 92.148,70.18 C 92.064,70.058 92.049,69.551 92.037,69.512 C 92.017,69.451 91.99,69.403 91.948,69.356 C 91.758,69.13 91.468,68.924 91.391,68.754 C 91.36,68.687 91.287,67.683 91.257,67.618 C 91.225,67.549 91.098,67.413 91.018,67.302 C 90.997,67.274 90.982,67.249 90.968,67.217 C 90.927,67.121 90.894,66.853 90.869,66.821 C 90.838,66.781 90.726,66.74 90.701,66.704 C 90.683,66.679 90.669,66.582 90.674,66.513 C 90.692,66.269 90.733,66.152 90.59,66.013 C 90.362,65.794 90.248,65.831 90.167,65.568 C 90.012,65.066 89.179,64.813 88.595,64.9 C 88.488,64.916 87.867,65.185 87.637,65.245 C 87.409,65.284 87.213,65.301 86.982,65.301 C 86.359,65.28 86.355,65.275 85.631,65.579 C 85.462,65.65 80.26,67.128 79.436,67.339 C 57.68,73.604 39.895,81.019 20.133,92.063 C 19.817,92.256 19.214,92.613 18.988,92.903 C 18.762,93.195 18.716,93.417 18.509,93.56 C 18.435,93.611 18.182,93.699 17.996,93.783 C 17.922,93.816 17.331,94.295 17.294,94.351 C 17.246,94.425 17.169,94.626 17.272,94.774 C 17.298,94.812 17.35,94.837 17.395,94.852 C 17.48,94.881 17.58,94.887 17.662,94.919 C 17.757,94.955 17.849,95.029 17.93,95.053 C 18.168,95.121 18.206,95.046 18.32,95.198 C 18.395,95.298 18.559,95.773 18.688,95.855 C 18.815,95.937 18.995,95.933 19.056,96.022 C 19.065,96.037 19.072,96.05 19.078,96.066 C 19.114,96.151 19.284,97.305 19.284,97.46 C 19.284,97.565 19.221,98.192 19.38,98.306 C 19.515,98.402 19.852,98.324 20.004,98.283 C 20.643,98.111 20.61,97.853 21.385,97.326 L 23.302,96.245 C 23.417,96.169 23.686,96.072 23.725,96.034 C 23.769,95.983 23.802,95.936 23.837,95.878 C 23.962,95.7 24.137,95.652 24.416,95.566 C 24.668,95.489 24.679,95.561 24.951,95.767 C 25.511,96.191 25.969,96.492 26.622,96.012 C 26.914,95.827 27.169,95.684 27.48,95.533 C 47.889,85.851 65.994,79.462 87.96,74.191 C 88.36,74.116 91.68,73.309 91.76,73.267 C 92.238,73.014 92.114,72.477 91.955,71.85 C 91.939,71.791 91.94,71.778 91.959,71.721 L 91.959,71.721 z M 49.062,63.942 C 49.062,65.796 49.843,69.169 51.625,70.38 C 51.827,70.517 52.057,70.588 52.171,70.758 C 52.338,71.008 52.272,71.084 52.494,71.148 C 52.837,71.246 52.878,71.143 53.506,71.159 C 53.601,71.161 54.036,71.231 54.166,71.203 C 54.379,71.158 54.505,71.035 54.678,71.147 C 54.785,71.216 54.754,71.258 54.823,71.381 C 54.935,71.582 55.527,71.552 55.69,71.537 C 56.305,71.478 56.832,71.32 57.13,70.824 C 57.218,70.678 57.587,70.071 58.023,69.882 C 58.254,69.782 58.298,69.823 58.397,69.739 C 58.598,69.568 58.823,69.101 58.898,68.995 C 58.963,68.903 59.453,68.471 59.748,68.196 C 61.209,66.833 63.171,62.606 62.724,60.238 C 62.628,59.731 62.259,58.056 61.977,57.636 C 61.857,57.457 61.644,57.277 61.576,57.079 C 61.556,57.021 61.549,56.961 61.531,56.901 C 61.259,55.935 59.539,53.812 58.565,53.804 C 58.465,53.803 58.377,53.819 58.289,53.804 C 58.206,53.791 57.88,53.625 57.777,53.604 C 57.675,53.583 57.225,53.605 57.131,53.66 C 56.761,53.862 56.426,53.993 56.017,54.094 C 55.829,54.141 55.757,54.122 55.621,54.224 C 55.495,54.318 55.377,54.47 55.261,54.554 C 55.195,54.601 54.878,54.71 54.68,54.797 C 52.927,55.566 50.929,57.912 50.279,59.62 C 50.052,60.21 49.062,63.372 49.062,63.942 L 49.062,63.942 z " id="path7" style="fill:#ee342a;fill-rule:evenodd" transform="matrix(2.252732038497925, 0, 0, 2.252732038497925, 30.613895416259773, 41.97512435913087)"/>
</svg>